<svg width="52" height="52" viewBox="0 0 52 52" fill="none" xmlns="http://www.w3.org/2000/svg">
<path id="Vector" d="M41.6668 51.9995C39.4006 51.9995 36.2173 51.1801 31.4504 48.5174C25.6538 45.2673 21.1702 42.2668 15.4049 36.5178C9.84624 30.9637 7.14122 27.3677 3.35536 20.48C-0.921587 12.7031 -0.192509 8.62662 0.622479 6.88436C1.59303 4.80202 3.02565 3.55656 4.87737 2.32038C5.92913 1.63141 7.04216 1.04081 8.20233 0.556073C8.31843 0.506161 8.4264 0.458571 8.52276 0.415624C9.09743 0.156782 9.96814 -0.234383 11.071 0.183479C11.8071 0.459732 12.4642 1.02501 13.4928 2.04064C15.6022 4.12067 18.4849 8.75314 19.5483 11.0282C20.2623 12.5615 20.7348 13.5736 20.736 14.7088C20.736 16.0379 20.0673 17.0628 19.2558 18.169C19.1037 18.3767 18.9527 18.5752 18.8065 18.7679C17.923 19.9286 17.7291 20.2641 17.8568 20.863C18.1157 22.0667 20.0464 25.6499 23.2192 28.8152C26.3921 31.9805 29.8727 33.7889 31.0812 34.0466C31.7058 34.18 32.0483 33.9781 33.2464 33.0634C33.4182 32.9323 33.5947 32.7965 33.7793 32.6607C35.0168 31.7402 35.9944 31.089 37.2923 31.089H37.2993C38.4289 31.089 39.3959 31.5789 40.9981 32.3867C43.0878 33.4407 47.8604 36.2856 49.9536 38.397C50.9718 39.4231 51.5395 40.0777 51.817 40.8125C52.2349 41.9186 51.8413 42.7857 51.5848 43.3661C51.5418 43.4624 51.4942 43.568 51.4443 43.6853C50.9556 44.8431 50.3614 45.9536 49.6692 47.0026C48.4351 48.8482 47.1848 50.277 45.0974 51.2486C44.0255 51.7555 42.8524 52.0123 41.6668 51.9995Z" fill="black"/>
</svg>
