<svg width="51" height="40" viewBox="0 0 51 40" fill="none" xmlns="http://www.w3.org/2000/svg">
<path id="Vector" d="M45.9 0H5.1C2.295 0 0.0255 2.25 0.0255 5L0 35C0 37.75 2.295 40 5.1 40H45.9C48.705 40 51 37.75 51 35V5C51 2.25 48.705 0 45.9 0ZM44.88 10.625L26.8515 21.675C26.0355 22.175 24.9645 22.175 24.1485 21.675L6.12 10.625C5.86431 10.4843 5.64039 10.2942 5.46182 10.0661C5.28324 9.83812 5.15371 9.57694 5.08107 9.29843C5.00843 9.01991 4.99418 8.72984 5.0392 8.44577C5.08422 8.1617 5.18756 7.88953 5.34297 7.64575C5.49838 7.40197 5.70263 7.19164 5.94335 7.02749C6.18408 6.86334 6.45627 6.74878 6.74346 6.69075C7.03065 6.63271 7.32687 6.63242 7.61418 6.68987C7.9015 6.74732 8.17393 6.86133 8.415 7.025L25.5 17.5L42.585 7.025C42.8261 6.86133 43.0985 6.74732 43.3858 6.68987C43.6731 6.63242 43.9693 6.63271 44.2565 6.69075C44.5437 6.74878 44.8159 6.86334 45.0566 7.02749C45.2974 7.19164 45.5016 7.40197 45.657 7.64575C45.8124 7.88953 45.9158 8.1617 45.9608 8.44577C46.0058 8.72984 45.9916 9.01991 45.9189 9.29843C45.8463 9.57694 45.7168 9.83812 45.5382 10.0661C45.3596 10.2942 45.1357 10.4843 44.88 10.625Z" fill="black"/>
</svg>
