<svg width="53" height="54" viewBox="0 0 53 54" fill="none" xmlns="http://www.w3.org/2000/svg">
<g id="&#240;&#159;&#166;&#134; icon &#34;google 1&#34;">
<path id="Vector" d="M50.2898 22.4111H26.8917V31.621H40.5821C40.3332 33.8612 38.8397 37.346 35.6038 39.5863C33.6124 41.0798 30.6254 42.0754 26.8917 42.0754C20.4198 42.0754 14.6947 37.8439 12.7034 31.621C12.2055 30.1275 11.9566 28.3851 11.9566 26.6427C11.9566 24.9002 12.2055 23.1578 12.7034 21.6643C12.9523 21.1665 12.9523 20.6687 13.2012 20.4198C15.4415 15.1925 20.6687 11.4588 26.8917 11.4588C31.6211 11.4588 34.6081 13.4501 36.5994 15.1925L43.5691 8.22289C39.3372 4.48916 33.6124 2 26.8917 2C17.1839 2 8.72073 7.47615 4.73807 15.6904C2.99566 19.1752 2 22.9089 2 26.8916C2 30.8742 2.99566 34.608 4.73807 38.0928C8.72073 46.307 17.1839 51.7831 26.8917 51.7831C33.6124 51.7831 39.3372 49.5429 43.3199 45.8092C48.0493 41.5776 50.7874 35.1058 50.7874 27.3894C50.7874 25.3981 50.5387 23.9046 50.2898 22.4111Z" stroke="black" stroke-width="3.54226" stroke-miterlimit="10" stroke-linecap="round" stroke-linejoin="round"/>
</g>
</svg>
