<svg width="56" height="55" viewBox="0 0 56 55" fill="none" xmlns="http://www.w3.org/2000/svg">
<g id="&#240;&#159;&#166;&#134; icon &#34;share&#34;">
<g id="Group">
<path id="Vector" d="M40.3969 12.3782C45.5473 15.9578 49.1012 21.649 49.8222 28.2158" stroke="black" stroke-width="3.61342" stroke-linecap="round" stroke-linejoin="round"/>
<path id="Vector_2" d="M5.70837 28.3449C6.37794 21.8037 9.88026 16.1124 14.9792 12.5071" stroke="black" stroke-width="3.61342" stroke-linecap="round" stroke-linejoin="round"/>
<path id="Vector_3" d="M17.812 50.4138C20.7993 51.9332 24.1986 52.783 27.7782 52.783C31.229 52.783 34.4738 52.0105 37.3838 50.5941" stroke="black" stroke-width="3.61342" stroke-linecap="round" stroke-linejoin="round"/>
<path id="Vector_4" d="M27.7781 16.3183C31.7321 16.3183 34.9373 13.1131 34.9373 9.15916C34.9373 5.20527 31.7321 2 27.7781 2C23.8243 2 20.619 5.20527 20.619 9.15916C20.619 13.1131 23.8243 16.3183 27.7781 16.3183Z" stroke="black" stroke-width="3.61342" stroke-linecap="round" stroke-linejoin="round"/>
<path id="Vector_5" d="M9.15916 47.7876C13.113 47.7876 16.3183 44.5822 16.3183 40.6284C16.3183 36.6744 13.113 33.4692 9.15916 33.4692C5.20527 33.4692 2 36.6744 2 40.6284C2 44.5822 5.20527 47.7876 9.15916 47.7876Z" stroke="black" stroke-width="3.61342" stroke-linecap="round" stroke-linejoin="round"/>
<path id="Vector_6" d="M46.0881 47.7876C50.0421 47.7876 53.2473 44.5822 53.2473 40.6284C53.2473 36.6744 50.0421 33.4692 46.0881 33.4692C42.1344 33.4692 38.929 36.6744 38.929 40.6284C38.929 44.5822 42.1344 47.7876 46.0881 47.7876Z" stroke="black" stroke-width="3.61342" stroke-linecap="round" stroke-linejoin="round"/>
</g>
</g>
</svg>
