<svg width="54" height="56" viewBox="0 0 54 56" fill="none" xmlns="http://www.w3.org/2000/svg">
<g id="&#240;&#159;&#166;&#134; icon &#34;camera&#34;">
<g id="Group">
<path id="Vector" d="M40.4035 55.1558H13.5182C6.3351 55.1558 1.76871 50.8716 1.35825 43.7142L0.0242448 22.5498C-0.180986 19.343 0.92213 16.2646 3.12836 13.9301C5.30894 11.5956 8.38741 10.2616 11.5685 10.2616C12.3894 10.2616 13.1847 9.77413 13.5695 9.00451L15.4166 5.33601C16.9302 2.3345 20.7269 0 24.0363 0H29.911C33.2204 0 36.9915 2.3345 38.5051 5.31035L40.3522 9.05582C40.737 9.77413 41.5066 10.2616 42.3532 10.2616C45.5342 10.2616 48.6127 11.5956 50.7933 13.9301C52.9995 16.2902 54.1026 19.343 53.8974 22.5498L52.5634 43.7399C52.1016 50.9999 47.6635 55.1558 40.4035 55.1558ZM24.0363 3.84808C22.1379 3.84808 19.7264 5.33601 18.8542 7.05482L17.0071 10.749C15.9296 12.8269 13.8517 14.1096 11.5685 14.1096C9.41356 14.1096 7.41254 14.9819 5.92464 16.5468C4.46237 18.1116 3.7184 20.1639 3.87233 22.2932L5.20633 43.4833C5.51415 48.6654 8.31045 51.3078 13.5182 51.3078H40.4035C45.5856 51.3078 48.3818 48.6654 48.7153 43.4833L50.0493 22.2932C50.1776 20.1639 49.4593 18.1116 47.997 16.5468C46.5091 14.9819 44.5081 14.1096 42.3532 14.1096C40.07 14.1096 37.992 12.8269 36.9145 10.8003L35.0418 7.05482C34.1952 5.36166 31.7838 3.87374 29.8854 3.87374H24.0363V3.84808Z" fill="black"/>
<path id="Vector_2" d="M30.8097 19.2402H23.1135C22.0617 19.2402 21.1895 18.3679 21.1895 17.3161C21.1895 16.2643 22.0617 15.3921 23.1135 15.3921H30.8097C31.8615 15.3921 32.7337 16.2643 32.7337 17.3161C32.7337 18.3679 31.8615 19.2402 30.8097 19.2402Z" fill="black"/>
<path id="Vector_3" d="M26.9616 44.8942C21.2921 44.8942 16.7001 40.3021 16.7001 34.6326C16.7001 28.9631 21.2921 24.3711 26.9616 24.3711C32.6311 24.3711 37.2232 28.9631 37.2232 34.6326C37.2232 40.3021 32.6311 44.8942 26.9616 44.8942ZM26.9616 28.2192C23.4214 28.2192 20.5482 31.0924 20.5482 34.6326C20.5482 38.1729 23.4214 41.0461 26.9616 41.0461C30.5019 41.0461 33.3751 38.1729 33.3751 34.6326C33.3751 31.0924 30.5019 28.2192 26.9616 28.2192Z" fill="black"/>
</g>
</g>
</svg>
