<svg width="59" height="59" viewBox="0 0 59 59" fill="none" xmlns="http://www.w3.org/2000/svg">
<g id="&#240;&#159;&#166;&#134; icon &#34;design pencil&#34;">
<path id="Vector" d="M29.2593 2C14.2044 2 2 14.2044 2 29.2593C2 44.3141 14.2044 56.5186 29.2593 56.5186C44.3141 56.5186 56.5186 44.3141 56.5186 29.2593C56.5186 14.2044 44.3141 2 29.2593 2Z" stroke="black" stroke-width="3.61342" stroke-linecap="round" stroke-linejoin="round"/>
<path id="Vector_2" d="M18.3556 54.2501V34.7109L29.2593 15.6294L40.163 34.7109V54.2501" stroke="black" stroke-width="3.61342" stroke-linecap="round" stroke-linejoin="round"/>
<path id="Vector_3" d="M18.3556 34.7109C18.3556 34.7109 21.4271 37.4369 23.8075 37.4369C26.1877 37.4369 29.2593 34.7109 29.2593 34.7109C29.2593 34.7109 32.3309 37.4369 34.7112 37.4369C37.0915 37.4369 40.163 34.7109 40.163 34.7109" stroke="black" stroke-width="3.61342" stroke-linecap="round" stroke-linejoin="round"/>
</g>
</svg>
