<svg width="58" height="54" viewBox="0 0 58 54" fill="none" xmlns="http://www.w3.org/2000/svg">
<g id="&#240;&#159;&#166;&#134; icon &#34;bitcoin card&#34;">
<g id="Group">
<path id="Vector" d="M2 19.4995H31.6147" stroke="black" stroke-width="3.60936" stroke-miterlimit="10" stroke-linecap="round" stroke-linejoin="round"/>
<path id="Vector_2" d="M12.7689 41.0376H18.1534" stroke="black" stroke-width="3.60936" stroke-miterlimit="10" stroke-linecap="round" stroke-linejoin="round"/>
<path id="Vector_3" d="M24.8842 41.0376H35.6531" stroke="black" stroke-width="3.60936" stroke-miterlimit="10" stroke-linecap="round" stroke-linejoin="round"/>
<path id="Vector_4" d="M55.8449 27.1189V39.9878C55.8449 49.4376 53.4488 51.8068 43.8913 51.8068H13.9536C4.3961 51.8068 2 49.4376 2 39.9878V17.8576C2 8.40778 4.3961 6.03857 13.9536 6.03857H32.3685" stroke="black" stroke-width="3.60936" stroke-linecap="round" stroke-linejoin="round"/>
<g id="Group_2">
<path id="Vector_5" d="M42.3837 5.36523H50.8104C52.668 5.36523 54.1757 7.06135 54.1757 8.73054C54.1757 10.5882 52.668 12.0958 50.8104 12.0958H42.3837V5.36523Z" stroke="black" stroke-width="3.60936" stroke-miterlimit="10" stroke-linecap="round" stroke-linejoin="round"/>
<path id="Vector_6" d="M42.3837 12.0957H51.995C54.1219 12.0957 55.8449 13.6034 55.8449 15.461C55.8449 17.3187 54.1219 18.8263 51.995 18.8263H42.3837V12.0957Z" stroke="black" stroke-width="3.60936" stroke-miterlimit="10" stroke-linecap="round" stroke-linejoin="round"/>
<path id="Vector_7" d="M47.1221 18.8267V22.192" stroke="black" stroke-width="3.60936" stroke-miterlimit="10" stroke-linecap="round" stroke-linejoin="round"/>
<path id="Vector_8" d="M47.1221 2V5.36531" stroke="black" stroke-width="3.60936" stroke-miterlimit="10" stroke-linecap="round" stroke-linejoin="round"/>
<path id="Vector_9" d="M45.5877 5.36523H39.6917" stroke="black" stroke-width="3.60936" stroke-miterlimit="10" stroke-linecap="round" stroke-linejoin="round"/>
<path id="Vector_10" d="M45.5877 18.8267H39.6917" stroke="black" stroke-width="3.60936" stroke-miterlimit="10" stroke-linecap="round" stroke-linejoin="round"/>
</g>
</g>
</g>
</svg>
