<svg width="31" height="31" viewBox="0 0 31 31" fill="none" xmlns="http://www.w3.org/2000/svg">
<g id="&#240;&#159;&#166;&#134; icon &#34;google 1&#34;">
<path id="Vector" d="M29.2949 12.9597H15.585V18.3561H23.6068C23.4609 19.6688 22.5858 21.7107 20.6898 23.0233C19.523 23.8984 17.7728 24.4818 15.585 24.4818C11.7929 24.4818 8.43833 22.0024 7.27154 18.3561C6.97984 17.481 6.83399 16.4601 6.83399 15.4391C6.83399 14.4182 6.97984 13.3972 7.27154 12.5221C7.41739 12.2304 7.41739 11.9387 7.56324 11.7929C8.87588 8.73003 11.9387 6.54229 15.585 6.54229C18.3562 6.54229 20.1064 7.70909 21.2732 8.73003L25.357 4.64624C22.8774 2.4585 19.523 1 15.585 1C9.89683 1 4.93794 4.20869 2.60435 9.02173C1.5834 11.0636 1 13.2514 1 15.585C1 17.9186 1.5834 20.1063 2.60435 22.1482C4.93794 26.9612 9.89683 30.1699 15.585 30.1699C19.523 30.1699 22.8774 28.8573 25.211 26.6695C27.9821 24.1901 29.5865 20.398 29.5865 15.8767C29.5865 14.7099 29.4408 13.8348 29.2949 12.9597Z" stroke="black" stroke-width="1.5" stroke-miterlimit="10" stroke-linecap="round" stroke-linejoin="round"/>
</g>
</svg>
