<svg width="32" height="32" viewBox="0 0 32 32" fill="none" xmlns="http://www.w3.org/2000/svg">
<g id="&#240;&#159;&#166;&#134; icon &#34;design pencil&#34;">
<path id="Vector" d="M16 1C7.71572 1 1 7.71572 1 16C1 24.2842 7.71572 31 16 31C24.2842 31 31 24.2842 31 16C31 7.71572 24.2842 1 16 1Z" stroke="black" stroke-width="1.76471" stroke-linecap="round" stroke-linejoin="round"/>
<path id="Vector_2" d="M10 29.7509V18.999L16 8.49902L22 18.999V29.7509" stroke="black" stroke-width="1.76471" stroke-linecap="round" stroke-linejoin="round"/>
<path id="Vector_3" d="M10 19C10 19 11.6901 20.5 13 20.5C14.3098 20.5 16 19 16 19C16 19 17.6902 20.5 19 20.5C20.3098 20.5 22 19 22 19" stroke="black" stroke-width="1.76471" stroke-linecap="round" stroke-linejoin="round"/>
</g>
</svg>
