<svg width="36" height="34" viewBox="0 0 36 34" fill="none" xmlns="http://www.w3.org/2000/svg">
<g id="&#240;&#159;&#166;&#134; icon &#34;bitcoin card&#34;">
<g id="Group">
<path id="Vector" d="M2 12.54H19.8373" stroke="black" stroke-width="2.17397" stroke-miterlimit="10" stroke-linecap="round" stroke-linejoin="round"/>
<path id="Vector_2" d="M8.48633 25.5127H11.7295" stroke="black" stroke-width="2.17397" stroke-miterlimit="10" stroke-linecap="round" stroke-linejoin="round"/>
<path id="Vector_3" d="M15.7842 25.5127H22.2705" stroke="black" stroke-width="2.17397" stroke-miterlimit="10" stroke-linecap="round" stroke-linejoin="round"/>
<path id="Vector_4" d="M34.4315 17.1305V24.8817C34.4315 30.5734 32.9883 32.0004 27.2317 32.0004H9.1998C3.4432 32.0004 2 30.5734 2 24.8817V11.5523C2 5.8606 3.4432 4.43359 9.1998 4.43359H20.2914" stroke="black" stroke-width="2.17397" stroke-linecap="round" stroke-linejoin="round"/>
<g id="Group_2">
<path id="Vector_5" d="M26.3242 4.02637H31.3998C32.5186 4.02637 33.4267 5.04796 33.4267 6.05334C33.4267 7.17222 32.5186 8.08031 31.3998 8.08031H26.3242V4.02637Z" stroke="black" stroke-width="2.17397" stroke-miterlimit="10" stroke-linecap="round" stroke-linejoin="round"/>
<path id="Vector_6" d="M26.3242 8.08105H32.1132C33.3943 8.08105 34.4321 8.98914 34.4321 10.108C34.4321 11.2269 33.3943 12.135 32.1132 12.135H26.3242V8.08105Z" stroke="black" stroke-width="2.17397" stroke-miterlimit="10" stroke-linecap="round" stroke-linejoin="round"/>
<path id="Vector_7" d="M29.1777 12.1348V14.1617" stroke="black" stroke-width="2.17397" stroke-miterlimit="10" stroke-linecap="round" stroke-linejoin="round"/>
<path id="Vector_8" d="M29.1777 2V4.02697" stroke="black" stroke-width="2.17397" stroke-miterlimit="10" stroke-linecap="round" stroke-linejoin="round"/>
<path id="Vector_9" d="M28.2534 4.02637H24.7021" stroke="black" stroke-width="2.17397" stroke-miterlimit="10" stroke-linecap="round" stroke-linejoin="round"/>
<path id="Vector_10" d="M28.2534 12.1348H24.7021" stroke="black" stroke-width="2.17397" stroke-miterlimit="10" stroke-linecap="round" stroke-linejoin="round"/>
</g>
</g>
</g>
</svg>
