<svg width="33" height="32" viewBox="0 0 33 32" fill="none" xmlns="http://www.w3.org/2000/svg">
<g id="&#240;&#159;&#166;&#134; icon &#34;share&#34;">
<g id="Group">
<path id="Vector" d="M23.7275 7.14258C26.7761 9.26133 28.8796 12.63 29.3064 16.5169" stroke="black" stroke-width="1.78431" stroke-linecap="round" stroke-linejoin="round"/>
<path id="Vector_2" d="M3.19531 16.5941C3.59163 12.7224 5.66465 9.35372 8.68273 7.21973" stroke="black" stroke-width="1.78431" stroke-linecap="round" stroke-linejoin="round"/>
<path id="Vector_3" d="M10.3594 29.6572C12.1275 30.5566 14.1396 31.0596 16.2584 31.0596C18.3009 31.0596 20.2215 30.6023 21.9439 29.7639" stroke="black" stroke-width="1.78431" stroke-linecap="round" stroke-linejoin="round"/>
<path id="Vector_4" d="M16.258 9.47501C18.5984 9.47501 20.4955 7.57783 20.4955 5.23751C20.4955 2.8972 18.5984 1 16.258 1C13.9177 1 12.0205 2.8972 12.0205 5.23751C12.0205 7.57783 13.9177 9.47501 16.258 9.47501Z" stroke="black" stroke-width="1.78431" stroke-linecap="round" stroke-linejoin="round"/>
<path id="Vector_5" d="M5.23751 28.101C7.57782 28.101 9.47502 26.2037 9.47502 23.8635C9.47502 21.5231 7.57782 19.626 5.23751 19.626C2.8972 19.626 1 21.5231 1 23.8635C1 26.2037 2.8972 28.101 5.23751 28.101Z" stroke="black" stroke-width="1.78431" stroke-linecap="round" stroke-linejoin="round"/>
<path id="Vector_6" d="M27.0959 28.101C29.4363 28.101 31.3334 26.2037 31.3334 23.8635C31.3334 21.5231 29.4363 19.626 27.0959 19.626C24.7557 19.626 22.8584 21.5231 22.8584 23.8635C22.8584 26.2037 24.7557 28.101 27.0959 28.101Z" stroke="black" stroke-width="1.78431" stroke-linecap="round" stroke-linejoin="round"/>
</g>
</g>
</svg>
