<svg width="34" height="32" viewBox="0 0 34 32" fill="none" xmlns="http://www.w3.org/2000/svg">
<path id="Vector" d="M16.9915 8.53333C14.7372 8.53333 12.5752 9.43238 10.9811 11.0327C9.38703 12.633 8.4915 14.8035 8.4915 17.0667C8.4915 19.3298 9.38703 21.5003 10.9811 23.1006C12.5752 24.701 14.7372 25.6 16.9915 25.6C19.2458 25.6 21.4079 24.701 23.0019 23.1006C24.596 21.5003 25.4915 19.3298 25.4915 17.0667C25.4915 14.8035 24.596 12.633 23.0019 11.0327C21.4079 9.43238 19.2458 8.53333 16.9915 8.53333ZM10.6165 17.0667C10.6165 15.3693 11.2881 13.7414 12.4837 12.5412C13.6792 11.341 15.3007 10.6667 16.9915 10.6667C18.6823 10.6667 20.3038 11.341 21.4993 12.5412C22.6949 13.7414 23.3665 15.3693 23.3665 17.0667C23.3665 18.7641 22.6949 20.3919 21.4993 21.5922C20.3038 22.7924 18.6823 23.4667 16.9915 23.4667C15.3007 23.4667 13.6792 22.7924 12.4837 21.5922C11.2881 20.3919 10.6165 18.7641 10.6165 17.0667ZM13.005 0C12.4143 1.82905e-05 11.8353 0.164797 11.3325 0.475951C10.8297 0.787104 10.4229 1.23239 10.1575 1.76213L8.90375 4.26667H5.3125C3.90354 4.26667 2.55228 4.82857 1.556 5.82876C0.559708 6.82896 0 8.18551 0 9.6V26.6667C0 28.0812 0.559708 29.4377 1.556 30.4379C2.55228 31.4381 3.90354 32 5.3125 32H28.6875C30.0965 32 31.4477 31.4381 32.444 30.4379C33.4403 29.4377 34 28.0812 34 26.6667V9.6C34 8.18551 33.4403 6.82896 32.444 5.82876C31.4477 4.82857 30.0965 4.26667 28.6875 4.26667H25.0963L23.8552 1.77067C23.5907 1.23868 23.1837 0.791219 22.68 0.47846C22.1763 0.165701 21.5958 2.00854e-05 21.0035 0H13.005ZM12.0551 2.72C12.1437 2.54345 12.2795 2.39509 12.4472 2.29149C12.615 2.1879 12.8081 2.13314 13.005 2.13333H21.0035C21.201 2.13294 21.3947 2.18783 21.5629 2.29184C21.7311 2.39585 21.867 2.54486 21.9555 2.72213L23.4919 5.80907C23.5802 5.98602 23.7158 6.13481 23.8836 6.2388C24.0513 6.34278 24.2446 6.39786 24.4417 6.39787H28.6896C29.535 6.39787 30.3458 6.73501 30.9435 7.33512C31.5413 7.93524 31.8771 8.74917 31.8771 9.59787V26.6667C31.8771 27.5154 31.5413 28.3293 30.9435 28.9294C30.3458 29.5295 29.535 29.8667 28.6896 29.8667H5.31463C4.46925 29.8667 3.65849 29.5295 3.06072 28.9294C2.46295 28.3293 2.12713 27.5154 2.12713 26.6667V9.6C2.12713 8.75131 2.46295 7.93737 3.06072 7.33726C3.65849 6.73714 4.46925 6.4 5.31463 6.4H9.56037C9.75717 6.3996 9.94998 6.34434 10.1173 6.24037C10.2847 6.13641 10.42 5.98783 10.5081 5.8112L12.0551 2.72Z" fill="black"/>
</svg>
