<svg width="37" height="52" viewBox="0 0 37 52" fill="none" xmlns="http://www.w3.org/2000/svg">
<path id="Vector" d="M18.5 24.7C16.7477 24.7 15.0671 24.0152 13.828 22.7962C12.589 21.5772 11.8929 19.9239 11.8929 18.2C11.8929 16.4761 12.589 14.8228 13.828 13.6038C15.0671 12.3848 16.7477 11.7 18.5 11.7C20.2523 11.7 21.9329 12.3848 23.172 13.6038C24.411 14.8228 25.1071 16.4761 25.1071 18.2C25.1071 19.0536 24.9362 19.8988 24.6042 20.6874C24.2722 21.4761 23.7855 22.1926 23.172 22.7962C22.5584 23.3998 21.8301 23.8786 21.0284 24.2052C20.2268 24.5319 19.3677 24.7 18.5 24.7ZM18.5 0C13.5935 0 8.88795 1.91749 5.41852 5.33066C1.9491 8.74382 0 13.3731 0 18.2C0 31.85 18.5 52 18.5 52C18.5 52 37 31.85 37 18.2C37 13.3731 35.0509 8.74382 31.5815 5.33066C28.1121 1.91749 23.4065 0 18.5 0Z" fill="black"/>
</svg>
