<svg width="12" height="22" viewBox="0 0 12 22" fill="none" xmlns="http://www.w3.org/2000/svg">
<path id="Vector" d="M0.322479 1.85489C0.219468 1.74993 0.138938 1.62646 0.0854844 1.49154C0.0320308 1.35662 0.00670069 1.21288 0.0109417 1.06853C0.0151828 0.924187 0.0489115 0.782057 0.110202 0.65026C0.171492 0.518463 0.259143 0.39958 0.368151 0.300398C0.477159 0.201216 0.60539 0.123678 0.745521 0.0722115C0.885652 0.0207446 1.03494 -0.00364346 1.18486 0.000439951C1.33478 0.00452336 1.4824 0.0369981 1.61928 0.0960101C1.75617 0.155022 1.87964 0.239416 1.98265 0.344372L11.6879 10.2386C11.8883 10.4427 12 10.7129 12 10.9938C12 11.2747 11.8883 11.545 11.6879 11.7491L1.98264 21.6444C1.88031 21.7516 1.75687 21.8382 1.61948 21.8992C1.48209 21.9601 1.3335 21.9941 1.18233 21.9993C1.03116 22.0045 0.880436 21.9807 0.738903 21.9293C0.59737 21.8779 0.467853 21.7999 0.357875 21.7C0.247896 21.6 0.159649 21.4799 0.0982592 21.3468C0.0368693 21.2137 0.00356049 21.0702 0.000267042 20.9246C-0.0030264 20.779 0.0237609 20.6342 0.079074 20.4986C0.134387 20.3631 0.217123 20.2395 0.322476 20.135L9.28784 10.9938L0.322479 1.85489Z" fill="white"/>
</svg>
