<svg width="12" height="22" viewBox="0 0 12 22" fill="none" xmlns="http://www.w3.org/2000/svg">
<path id="Vector" d="M11.6775 20.1451C11.7805 20.2501 11.8611 20.3735 11.9145 20.5085C11.968 20.6434 11.9933 20.7871 11.9891 20.9315C11.9848 21.0758 11.9511 21.2179 11.8898 21.3497C11.8285 21.4815 11.7409 21.6004 11.6318 21.6996C11.5228 21.7988 11.3946 21.8763 11.2545 21.9278C11.1143 21.9793 10.9651 22.0036 10.8151 21.9996C10.6652 21.9955 10.5176 21.963 10.3807 21.904C10.2438 21.845 10.1204 21.7606 10.0174 21.6556L0.312104 11.7614C0.111677 11.5573 9.70795e-07 11.2871 9.46238e-07 11.0062C9.21681e-07 10.7253 0.111677 10.455 0.312104 10.2509L10.0173 0.355627C10.1197 0.248373 10.2431 0.161764 10.3805 0.100832C10.5179 0.0399019 10.6665 0.0058614 10.8177 0.000690564C10.9688 -0.00448027 11.1196 0.0193215 11.2611 0.0707112C11.4026 0.122101 11.5321 0.200054 11.6421 0.300045C11.7521 0.400038 11.8403 0.520073 11.9017 0.653179C11.9631 0.786285 11.9964 0.92981 11.9997 1.07542C12.003 1.22102 11.9762 1.36581 11.9209 1.50136C11.8656 1.63691 11.7829 1.76053 11.6775 1.86504L2.71215 11.0062L11.6775 20.1451Z" fill="white"/>
</svg>
